<svg xmlns="http://www.w3.org/2000/svg" xmlns:xlink="http://www.w3.org/1999/xlink" version="1.1" data-diagram-type="DESCRIPTION" style="width:1806px;height:741px;background:#FFFFFF;" width="1806px" height="741px" viewBox="0 0 1806 741" zoomAndPan="magnify" preserveAspectRatio="none" contentStyleType="text/css"><?plantuml 1.2026.8?><defs/><g font-family="sans-serif" lengthAdjust="spacing"><g class="title" data-source-line="24"><text x="474.453" y="35.421" fill="#000" font-size="22" textLength="855.927" font-weight="700" font-family="'DejaVu Sans'">docling-rag-poc — local document RAG (one GPU box, cloud LLM API)</text></g><g class="legend" data-source-line="26"><rect x="10" y="56.609" width="638.208" height="111.781" fill="none" style="stroke:#000;stroke-width:1;" rx="5" ry="5"/><path d="M23.478,66.24 L22.673,67.08 L19.43,70.323 L18.485,69.413 L17.645,68.573 L16,70.218 L16.84,71.058 L18.59,72.808 L19.395,73.648 L20.235,72.808 L24.318,68.725 L25.158,67.885 L23.478,66.24" fill="#000"/><text x="30.784" y="74.604" fill="#000" font-size="14" textLength="16.447" font-family="'DejaVu Sans'">|=</text><text x="51.681" y="74.604" fill="#000" font-size="14" textLength="57.613" font-weight="700" font-family="'DejaVu Sans'">INGEST</text><text x="113.744" y="74.604" fill="#000" font-size="14" textLength="267.148" font-family="'DejaVu Sans'">(once per document, via ① upload) |=</text><text x="385.343" y="74.604" fill="#000" font-size="14" textLength="53.751" font-weight="700" font-family="'DejaVu Sans'">QUERY</text><text x="443.544" y="74.604" fill="#000" font-size="14" textLength="199.664" font-family="'DejaVu Sans'">(every question, via ① ask) |</text><text x="15" y="92.901" fill="#000" font-size="14" font-family="'DejaVu Sans'"> </text><text x="19.45" y="92.901" fill="#000" font-size="14" font-weight="700" font-family="'DejaVu Sans'">②</text><text x="35.754" y="92.901" fill="#000" font-size="14" textLength="148.367" font-family="'DejaVu Sans'">Docling parses (GPU)</text><text x="231.48" y="92.901" fill="#000" font-size="14" font-family="'DejaVu Sans'"> </text><text x="235.931" y="92.901" fill="#000" font-size="14" font-weight="700" font-family="'DejaVu Sans'">②</text><text x="252.234" y="92.901" fill="#000" font-size="14" textLength="347.45" font-family="'DejaVu Sans'">Qdrant hybrid search: dense + sparse, RRF-fused</text><text x="15" y="109.198" fill="#000" font-size="14" font-family="'DejaVu Sans'"> </text><text x="19.45" y="109.198" fill="#000" font-size="14" font-weight="700" font-family="'DejaVu Sans'">③</text><text x="35.754" y="109.198" fill="#000" font-size="14" textLength="138.154" font-family="'DejaVu Sans'">original kept in files</text><text x="231.48" y="109.198" fill="#000" font-size="14" font-family="'DejaVu Sans'"> </text><text x="235.931" y="109.198" fill="#000" font-size="14" font-weight="700" font-family="'DejaVu Sans'">③</text><text x="252.234" y="109.198" fill="#000" font-size="14" textLength="254.297" font-family="'DejaVu Sans'">Qwen3 reranks top-50 → keep ≥ 0.3</text><text x="15" y="125.495" fill="#000" font-size="14" font-family="'DejaVu Sans'"> </text><text x="19.45" y="125.495" fill="#000" font-size="14" font-weight="700" font-family="'DejaVu Sans'">④</text><text x="35.754" y="125.495" fill="#000" font-size="14" textLength="182.376" font-family="'DejaVu Sans'">chunk with page numbers</text><text x="231.48" y="125.495" fill="#000" font-size="14" font-family="'DejaVu Sans'"> </text><text x="235.931" y="125.495" fill="#000" font-size="14" font-weight="700" font-family="'DejaVu Sans'">④</text><text x="252.234" y="125.495" fill="#000" font-size="14" textLength="301.096" font-family="'DejaVu Sans'">all below 0.3? → 🚫 refuse, LLM never called</text><text x="15" y="141.792" fill="#000" font-size="14" font-family="'DejaVu Sans'"> </text><text x="19.45" y="141.792" fill="#000" font-size="14" font-weight="700" font-family="'DejaVu Sans'">⑤</text><text x="35.754" y="141.792" fill="#000" font-size="14" textLength="173.838" font-family="'DejaVu Sans'">BGE-M3: dense + sparse</text><text x="231.48" y="141.792" fill="#000" font-size="14" font-family="'DejaVu Sans'"> </text><text x="235.931" y="141.792" fill="#000" font-size="14" font-weight="700" font-family="'DejaVu Sans'">⑤</text><text x="252.234" y="141.792" fill="#000" font-size="14" textLength="292.339" font-family="'DejaVu Sans'">cloud LLM answers from surviving chunks</text><text x="15" y="158.089" fill="#000" font-size="14" font-family="'DejaVu Sans'"> </text><text x="19.45" y="158.089" fill="#000" font-size="14" font-weight="700" font-family="'DejaVu Sans'">⑥</text><text x="35.754" y="158.089" fill="#000" font-size="14" textLength="129.233" font-family="'DejaVu Sans'">upsert into Qdrant</text><text x="231.48" y="158.089" fill="#000" font-size="14" font-family="'DejaVu Sans'"> </text><text x="235.931" y="158.089" fill="#000" font-size="14" font-weight="700" font-family="'DejaVu Sans'">⑥</text><text x="252.234" y="158.089" fill="#000" font-size="14" textLength="301.684" font-family="'DejaVu Sans'">answer + [doc, chunk, page] citations → UI</text><line x1="15" y1="79.906" x2="604.135" y2="79.906" style="stroke:#000;stroke-width:1;"/><line x1="15" y1="96.203" x2="604.135" y2="96.203" style="stroke:#000;stroke-width:1;"/><line x1="15" y1="112.5" x2="604.135" y2="112.5" style="stroke:#000;stroke-width:1;"/><line x1="15" y1="128.797" x2="604.135" y2="128.797" style="stroke:#000;stroke-width:1;"/><line x1="15" y1="145.094" x2="604.135" y2="145.094" style="stroke:#000;stroke-width:1;"/><line x1="15" y1="161.391" x2="604.135" y2="161.391" style="stroke:#000;stroke-width:1;"/><line x1="15" y1="79.906" x2="15" y2="161.391" style="stroke:#000;stroke-width:1;"/><line x1="231.48" y1="79.906" x2="231.48" y2="161.391" style="stroke:#000;stroke-width:1;"/><line x1="604.135" y1="79.906" x2="604.135" y2="161.391" style="stroke:#000;stroke-width:1;"/></g><!--cluster rag service\n(FastAPI · one GPU process\ncompose service: rag)--><g class="cluster" data-qualified-name="rag service.n.FastAPI . one GPU process.ncompose service. rag." id="ent0002" data-source-line="37"><rect x="1289.7" y="181.391" width="485" height="539.23" fill="#EEF2FF" style="stroke:#6366F1;stroke-width:1;" rx="5" ry="5"/><text x="1513.395" y="195.458" fill="#000" font-size="13" textLength="37.61" font-style="italic" font-family="'DejaVu Sans'">«rag»</text><text x="1491.483" y="210.59" fill="#000" font-size="13" textLength="81.434" font-weight="700" font-family="'DejaVu Sans'">rag service</text><text x="1432.491" y="225.723" fill="#000" font-size="13" textLength="199.418" font-weight="700" font-family="'DejaVu Sans'">(FastAPI · one GPU process</text><text x="1451.163" y="240.856" fill="#000" font-size="13" textLength="162.075" font-weight="700" font-family="'DejaVu Sans'">compose service: rag)</text></g><!--entity docling--><g class="entity" data-qualified-name="rag service.n.FastAPI . one GPU process.ncompose service. rag..docling" id="ent0003" data-source-line="38"><rect x="1562.07" y="260.391" width="191.26" height="80.531" fill="#ECFDF5" style="stroke:#10B981;stroke-width:1;" rx="5" ry="5"/><text x="1631.633" y="282.458" fill="#000" font-size="13" textLength="52.133" font-style="italic" font-family="'DejaVu Sans'">«stage»</text><text x="1572.07" y="297.59" fill="#000" font-size="13" textLength="48.826" font-family="'DejaVu Sans'">Docling</text><text x="1572.07" y="312.723" fill="#000" font-size="13" textLength="125.626" font-family="'DejaVu Sans'">layout-aware parse</text><text x="1572.07" y="327.856" fill="#000" font-size="13" textLength="171.26" font-family="'DejaVu Sans'">(GPU: RapidOCR + layout)</text></g><!--entity chunker--><g class="entity" data-qualified-name="rag service.n.FastAPI . one GPU process.ncompose service. rag..chunker" id="ent0004" data-source-line="39"><rect x="1312.64" y="449.991" width="142.123" height="80.531" fill="#ECFDF5" style="stroke:#10B981;stroke-width:1;" rx="5" ry="5"/><text x="1357.635" y="472.058" fill="#000" font-size="13" textLength="52.133" font-style="italic" font-family="'DejaVu Sans'">«stage»</text><text x="1322.64" y="487.19" fill="#000" font-size="13" textLength="54.666" font-family="'DejaVu Sans'">Chunker</text><text x="1322.64" y="502.323" fill="#000" font-size="13" textLength="122.123" font-family="'DejaVu Sans'">~800 chars, keeps</text><text x="1322.64" y="517.456" fill="#000" font-size="13" textLength="94.11" font-family="'DejaVu Sans'">page numbers</text></g><!--entity embed--><g class="entity" data-qualified-name="rag service.n.FastAPI . one GPU process.ncompose service. rag..embed" id="ent0005" data-source-line="40"><rect x="1305.64" y="624.091" width="192.117" height="80.531" fill="#ECFDF5" style="stroke:#10B981;stroke-width:1;" rx="5" ry="5"/><text x="1375.632" y="646.158" fill="#000" font-size="13" textLength="52.133" font-style="italic" font-family="'DejaVu Sans'">«stage»</text><text x="1315.64" y="661.29" fill="#000" font-size="13" textLength="122.275" font-family="'DejaVu Sans'">BGE-M3 embedder</text><text x="1315.64" y="676.423" fill="#000" font-size="13" textLength="172.117" font-family="'DejaVu Sans'">one pass → dense (1024d)</text><text x="1315.64" y="691.556" fill="#000" font-size="13" textLength="114.048" font-family="'DejaVu Sans'">+ sparse (lexical)</text></g><!--entity rerank--><g class="entity" data-qualified-name="rag service.n.FastAPI . one GPU process.ncompose service. rag..rerank" id="ent0006" data-source-line="41"><rect x="1305.91" y="260.391" width="221.576" height="80.531" fill="#ECFDF5" style="stroke:#10B981;stroke-width:1;" rx="5" ry="5"/><text x="1390.631" y="282.458" fill="#000" font-size="13" textLength="52.133" font-style="italic" font-family="'DejaVu Sans'">«stage»</text><text x="1315.91" y="297.59" fill="#000" font-size="13" textLength="143.241" font-family="'DejaVu Sans'">Qwen3-Reranker 0.6B</text><text x="1315.91" y="312.723" fill="#000" font-size="13" textLength="164.093" font-family="'DejaVu Sans'">scores top-50 candidates</text><text x="1315.91" y="327.856" fill="#000" font-size="13" textLength="201.576" font-family="'DejaVu Sans'">refusal gate: all &lt; 0.3 → refuse</text></g><!--entity files--><g class="entity" data-qualified-name="rag service.n.FastAPI . one GPU process.ncompose service. rag..files" id="ent0007" data-source-line="42"><path d="M1518.25,455.491 C1518.25,445.491 1599.693,445.491 1599.693,445.491 C1599.693,445.491 1681.136,445.491 1681.136,455.491 L1681.136,525.022 C1681.136,535.022 1599.693,535.022 1599.693,535.022 C1599.693,535.022 1518.25,535.022 1518.25,525.022 L1518.25,455.491" style="stroke:#000;stroke-width:1;" fill="#FFF"/><path d="M1518.25,455.491 C1518.25,465.491 1599.693,465.491 1599.693,465.491 C1599.693,465.491 1681.136,465.491 1681.136,455.491" style="stroke:#000;stroke-width:1;" fill="none"/><text x="1575.086" y="481.558" fill="#000" font-size="13" textLength="49.213" font-style="italic" font-family="'DejaVu Sans'">«store»</text><text x="1528.25" y="496.69" fill="#000" font-size="13" textLength="78.863" font-family="'DejaVu Sans'">files volume</text><text x="1528.25" y="511.823" fill="#000" font-size="13" textLength="139.839" font-family="'DejaVu Sans'">original PDFs kept for</text><text x="1528.25" y="526.956" fill="#000" font-size="13" textLength="142.886" font-family="'DejaVu Sans'">file.pdf#page=N links</text></g><!--entity user--><g class="entity" data-qualified-name="user" id="ent0001" data-source-line="35"><ellipse cx="172.695" cy="271.591" rx="8" ry="8" fill="#FFF" style="stroke:#000;stroke-width:1;"/><path d="M172.695,279.591 L172.695,306.591 M159.695,287.591 L185.695,287.591 M172.695,306.591 L159.695,321.591 M172.695,306.591 L185.695,321.591" style="stroke:#000;stroke-width:1;" fill="none"/><text x="157.88" y="335.658" fill="#000" font-size="13" textLength="29.631" font-family="'DejaVu Sans'">User</text></g><!--entity qdrant--><g class="entity" data-qualified-name="qdrant" id="ent0008" data-source-line="45"><path d="M888.07,622.021 C888.07,612.021 983.694,612.021 983.694,612.021 C983.694,612.021 1079.317,612.021 1079.317,622.021 L1079.317,706.685 C1079.317,716.685 983.694,716.685 983.694,716.685 C983.694,716.685 888.07,716.685 888.07,706.685 L888.07,622.021" style="stroke:#000;stroke-width:1;" fill="#FFF"/><path d="M888.07,622.021 C888.07,632.021 983.694,632.021 983.694,632.021 C983.694,632.021 1079.317,632.021 1079.317,622.021" style="stroke:#000;stroke-width:1;" fill="none"/><text x="959.087" y="648.088" fill="#000" font-size="13" textLength="49.213" font-style="italic" font-family="'DejaVu Sans'">«store»</text><text x="898.07" y="663.22" fill="#000" font-size="13" textLength="78.209" font-family="'DejaVu Sans'">Qdrant 1.15</text><text x="898.07" y="678.353" fill="#000" font-size="13" textLength="171.247" font-family="'DejaVu Sans'">(compose service: qdrant)</text><text x="898.07" y="693.486" fill="#000" font-size="13" textLength="153.664" font-family="'DejaVu Sans'">dense + sparse vectors</text><text x="898.07" y="708.619" fill="#000" font-size="13" textLength="145.679" font-family="'DejaVu Sans'">server-side RRF fusion</text></g><!--entity llm--><g class="entity" data-qualified-name="llm" id="ent0009" data-source-line="47"><path d="M653.841,257.4 C657.199,248.933 664.56,247.794 670.039,255.241 C673.622,248.857 679.484,247.213 684.212,254.01 C687.915,245.331 694.048,244.39 700.714,250.76 C705.126,244.128 711.166,243.5 715.767,250.553 C720.191,241.324 725.404,242.495 731.832,248.429 C735.464,240.426 740.799,239.175 746.891,245.916 C751.512,240.774 757.727,241.757 760.045,248.471 C765.123,239.825 771.137,240.644 776.104,248.578 C782.148,242.519 788.002,241.937 791.572,251.093 C796.467,243.733 803.44,245.932 806.033,253.346 C812.228,245.641 818.035,246.562 823.233,254.446 C833.697,246.499 840.555,251.57 842.781,262.831 C843.848,263.131 844.012,263.715 843.492,264.639 C855.266,268.399 854.125,275.885 847.835,283.751 C857.344,288.261 856.79,297.37 849.024,302.951 C856.653,309.256 855.63,316.96 846.27,320.617 C856.069,334.635 851.851,342.382 835.781,345.495 C836.85,345.153 837.703,345.92 837.515,347.013 C833.405,354.595 826.441,354.51 822.185,347.163 C818.322,353.554 812.98,354.193 807.691,348.938 C803.031,358.449 796.721,357.407 790.646,350.398 C788.128,357.499 781.73,357.892 776.986,352.915 C773.423,361.452 766.876,363.387 760.804,355.367 C757.3,361.544 751.156,362.053 747.333,355.71 C741.844,362.508 734.085,364.124 729.795,354.434 C725.129,361.295 718.226,360.087 714.96,352.95 C709.759,360.24 704.108,360.769 699.187,352.663 C693.912,358.122 687.934,356.926 685.654,349.514 C680.663,356.3 673.765,355.04 670.189,347.939 C658.929,354.861 650.085,351.007 646.61,338.495 C647.791,338.199 648.676,338.586 648.459,340.004 C639.489,334.749 639.061,329.055 646.208,321.807 C636.356,317.087 635.017,309.179 643.448,301.921 C634.319,295.96 635.754,288.386 645.022,284.045 C633.175,270.321 635.812,260.531 653.61,255.831 C654.465,256.178 654.543,256.823 653.841,257.4" style="stroke:#000;stroke-width:1;" fill="#FFF"/><text x="726.278" y="274.898" fill="#000" font-size="13" textLength="36.835" font-style="italic" font-family="'DejaVu Sans'">«ext»</text><text x="653.61" y="290.03" fill="#000" font-size="13" textLength="91.667" font-family="'DejaVu Sans'">Cloud LLM API</text><text x="653.61" y="305.163" fill="#000" font-size="13" textLength="182.171" font-family="'DejaVu Sans'">OpenAI / OpenRouter / z.ai /</text><text x="653.61" y="320.296" fill="#000" font-size="13" textLength="152.725" font-family="'DejaVu Sans'">any OpenAI-compatible</text><text x="653.61" y="335.429" fill="#000" font-size="13" textLength="177.601" font-family="'DejaVu Sans'">(only internet dependency)</text></g><!--entity ui--><g class="entity" data-qualified-name="ui" id="ent0010" data-source-line="49"><rect x="502.36" y="449.991" width="170.674" height="80.531" fill="#F0FDFA" style="stroke:#14B8A6;stroke-width:1;" rx="5" ry="5"/><text x="573.748" y="472.058" fill="#000" font-size="13" textLength="27.898" font-style="italic" font-family="'DejaVu Sans'">«ui»</text><text x="512.36" y="487.19" fill="#000" font-size="13" textLength="46.585" font-family="'DejaVu Sans'">Web UI</text><text x="512.36" y="502.323" fill="#000" font-size="13" textLength="150.674" font-family="'DejaVu Sans'">(served by rag service)</text><text x="512.36" y="517.456" fill="#000" font-size="13" textLength="139.794" font-family="'DejaVu Sans'">ingest · doc list · chat</text></g><!--link user to ui--><g class="link" data-entity-1="ent0001" data-entity-2="ent0010" id="lnk11" data-source-line="51" data-link-type="dependency"><path d="M187.89,316.921 C212.97,341.261 265.55,388.831 318.7,415.491 C376.59,444.531 442.525,462.339 496.965,473.699" style="stroke:#475569;stroke-width:1.5;" fill="none" id="user-to-ui"/><polygon points="501.86,474.721,493.867,468.967,496.965,473.699,492.233,476.798,501.86,474.721" fill="#475569" style="stroke:#475569;stroke-width:1.5;stroke-linejoin:miter;stroke-miterlimit:10;"/><text x="325.086" y="396.558" fill="#000" font-size="13" textLength="69.031" font-weight="700" font-family="'DejaVu Sans'">INGEST ①</text><text x="398.249" y="396.558" fill="#000" font-size="13" textLength="68.206" font-family="'DejaVu Sans'">upload file</text><text x="319.7" y="411.69" fill="#000" font-size="13" textLength="65.444" font-weight="700" font-family="'DejaVu Sans'">QUERY ①</text><text x="389.277" y="411.69" fill="#000" font-size="13" textLength="82.564" font-family="'DejaVu Sans'">ask question</text></g><!--link ui to user--><g class="link" data-entity-1="ent0010" data-entity-2="ent0001" id="lnk22" data-source-line="63" data-link-type="dependency"><path d="M502.04,483.591 C357.95,473.181 79.88,448.961 50.7,415.491 C11,369.971 112.231,324.904 152.901,309.074" style="stroke:#475569;stroke-width:1.5;" fill="none" id="ui-to-user"/><polygon points="157.56,307.261,147.722,306.798,152.901,309.074,150.624,314.253,157.56,307.261" fill="#475569" style="stroke:#475569;stroke-width:1.5;stroke-linejoin:miter;stroke-miterlimit:10;"/><text x="51.7" y="396.558" fill="#000" font-size="13" textLength="65.444" font-weight="700" font-family="'DejaVu Sans'">QUERY ⑥</text><text x="121.277" y="396.558" fill="#000" font-size="13" textLength="137.37" font-family="'DejaVu Sans'">answer; citation click</text><text x="79.004" y="411.69" fill="#000" font-size="13" textLength="152.337" font-family="'DejaVu Sans'">opens file.pdf#page=N</text></g><!--link ui to docling--><g class="link" data-entity-1="ent0010" data-entity-2="ent0003" id="lnk12" data-source-line="52" data-link-type="dependency"><path d="M673.19,476.401 C763.31,462.551 909.32,439.291 1034.7,415.491 C1101.24,402.861 1116.7,393.431 1183.7,383.491 C1342.95,359.871 1388.97,394.331 1544.7,353.491 C1556.49,350.401 1563.957,348.021 1575.637,343.281" style="stroke:#475569;stroke-width:1.5;" fill="none" id="ui-to-docling"/><polygon points="1580.27,341.401,1570.426,341.079,1575.637,343.281,1573.435,348.491,1580.27,341.401" fill="#475569" style="stroke:#475569;stroke-width:1.5;stroke-linejoin:miter;stroke-miterlimit:10;"/><text x="1184.7" y="404.058" fill="#000" font-size="13" textLength="69.031" font-weight="700" font-family="'DejaVu Sans'">INGEST ①</text><text x="1257.863" y="404.058" fill="#000" font-size="13" textLength="115.14" font-family="'DejaVu Sans'">POST /documents</text></g><!--link docling to files--><g class="link" data-entity-1="ent0003" data-entity-2="ent0007" id="lnk13" data-source-line="53" data-link-type="dependency"><path d="M1645.54,340.991 C1636.14,371.391 1624.597,408.704 1614.837,440.274" style="stroke:#475569;stroke-width:1.5;" fill="none" id="docling-to-files"/><polygon points="1613.36,445.051,1619.84,437.634,1614.837,440.274,1612.197,435.271,1613.36,445.051" fill="#475569" style="stroke:#475569;stroke-width:1.5;stroke-linejoin:miter;stroke-miterlimit:10;"/><text x="1633.17" y="404.058" fill="#000" font-size="13" textLength="69.031" font-weight="700" font-family="'DejaVu Sans'">INGEST ②</text><text x="1706.333" y="404.058" fill="#000" font-size="13" textLength="84.5" font-family="'DejaVu Sans'">keep original</text></g><!--link docling to chunker--><g class="link" data-entity-1="ent0003" data-entity-2="ent0004" id="lnk14" data-source-line="54" data-link-type="dependency"><path d="M1577.12,341.321 C1566.37,345.811 1555.37,350.011 1544.7,353.491 C1480.88,374.291 1442.28,334.231 1396.7,383.491 C1380.55,400.941 1377.157,422.524 1377.967,444.674" style="stroke:#475569;stroke-width:1.5;" fill="none" id="docling-to-chunker"/><polygon points="1378.15,449.671,1381.818,440.53,1377.967,444.674,1373.824,440.823,1378.15,449.671" fill="#475569" style="stroke:#475569;stroke-width:1.5;stroke-linejoin:miter;stroke-miterlimit:10;"/><text x="1397.7" y="404.058" fill="#000" font-size="13" textLength="69.031" font-weight="700" font-family="'DejaVu Sans'">INGEST ③</text><text x="1470.863" y="404.058" fill="#000" font-size="13" textLength="144.219" font-family="'DejaVu Sans'">page-provenant items</text></g><!--link chunker to embed--><g class="link" data-entity-1="ent0004" data-entity-2="ent0005" id="lnk15" data-source-line="55" data-link-type="dependency"><path d="M1387.83,530.741 C1390.74,558.621 1394.12,590.878 1397.04,618.788" style="stroke:#475569;stroke-width:1.5;" fill="none" id="chunker-to-embed"/><polygon points="1397.56,623.761,1400.602,614.393,1397.04,618.788,1392.645,615.226,1397.56,623.761" fill="#475569" style="stroke:#475569;stroke-width:1.5;stroke-linejoin:miter;stroke-miterlimit:10;"/><text x="1393.7" y="578.088" fill="#000" font-size="13" textLength="69.031" font-weight="700" font-family="'DejaVu Sans'">INGEST ④</text><text x="1466.863" y="578.088" fill="#000" font-size="13" textLength="104.565" font-family="'DejaVu Sans'">chunks + pages</text></g><!--link embed to qdrant--><g class="link" data-entity-1="ent0005" data-entity-2="ent0008" id="lnk16" data-source-line="56" data-link-type="dependency"><path d="M1305.16,664.351 C1237.41,664.351 1152.2,664.351 1084.6,664.351" style="stroke:#475569;stroke-width:1.5;" fill="none" id="embed-to-qdrant"/><polygon points="1079.6,664.351,1088.6,668.351,1084.6,664.351,1088.6,660.351,1079.6,664.351" fill="#475569" style="stroke:#475569;stroke-width:1.5;stroke-linejoin:miter;stroke-miterlimit:10;"/><text x="1097.48" y="642.418" fill="#000" font-size="13" textLength="80.038" font-weight="700" font-family="'DejaVu Sans'">INGEST ⑤⑥</text><text x="1181.65" y="642.418" fill="#000" font-size="13" textLength="106.025" font-family="'DejaVu Sans'">embed → upsert</text><text x="1136.743" y="657.55" fill="#000" font-size="13" textLength="111.668" font-family="'DejaVu Sans'">(dense + sparse)</text></g><!--link ui to qdrant--><g class="link" data-entity-1="ent0010" data-entity-2="ent0008" id="lnk17" data-source-line="58" data-link-type="dependency"><path d="M673.14,528.391 C736.23,555.811 817.574,591.158 883.054,619.618" style="stroke:#475569;stroke-width:1.5;" fill="none" id="ui-to-qdrant"/><polygon points="887.64,621.611,880.98,614.355,883.054,619.618,877.791,621.692,887.64,621.611" fill="#475569" style="stroke:#475569;stroke-width:1.5;stroke-linejoin:miter;stroke-miterlimit:10;"/><text x="786.7" y="578.088" fill="#000" font-size="13" textLength="65.444" font-weight="700" font-family="'DejaVu Sans'">QUERY ①</text><text x="856.277" y="578.088" fill="#000" font-size="13" textLength="80.304" font-family="'DejaVu Sans'">POST /query</text></g><!--link qdrant to rerank--><g class="link" data-entity-1="ent0008" data-entity-2="ent0006" id="lnk18" data-source-line="59" data-link-type="dependency"><path d="M985.83,611.711 C991.31,548.641 1010.23,443.021 1074.7,383.491 C1108.22,352.531 1214.29,330.593 1300.84,317.063" style="stroke:#475569;stroke-width:1.5;" fill="none" id="qdrant-to-rerank"/><polygon points="1305.78,316.291,1296.27,313.729,1300.84,317.063,1297.506,321.633,1305.78,316.291" fill="#475569" style="stroke:#475569;stroke-width:1.5;stroke-linejoin:miter;stroke-miterlimit:10;"/><text x="1029.34" y="494.828" fill="#000" font-size="13" textLength="65.444" font-weight="700" font-family="'DejaVu Sans'">QUERY ②</text><text x="1098.917" y="494.828" fill="#000" font-size="13" textLength="122.326" font-family="'DejaVu Sans'">fused top-50 (RRF)</text></g><!--link rerank to llm--><g class="link" data-entity-1="ent0006" data-entity-2="ent0009" id="lnk19" data-source-line="60" data-link-type="dependency"><path d="M1305.68,300.661 C1179.61,300.661 980.34,300.661 856.18,300.661" style="stroke:#475569;stroke-width:1.5;" fill="none" id="rerank-to-llm"/><polygon points="851.18,300.661,860.18,304.661,856.18,300.661,860.18,296.661,851.18,300.661" fill="#475569" style="stroke:#475569;stroke-width:1.5;stroke-linejoin:miter;stroke-miterlimit:10;"/><text x="996.35" y="293.728" fill="#000" font-size="13" textLength="76.451" font-weight="700" font-family="'DejaVu Sans'">QUERY ③④</text><text x="1076.933" y="293.728" fill="#000" font-size="13" textLength="83.497" font-family="'DejaVu Sans'">top-k (≥ 0.3)</text></g><!--link rerank to ui--><g class="link" data-entity-1="ent0006" data-entity-2="ent0010" id="lnk20" data-source-line="61" data-link-type="dependency"><path d="M1305.6,308.061 C1148.88,318.411 871.82,342.001 780.7,383.491 C761.22,392.361 762.57,403.711 744.7,415.491 C722.57,430.081 701.642,441.248 677.742,452.388" style="stroke:#475569;stroke-width:1.5;" fill="none" id="rerank-to-ui"/><polygon points="673.21,454.501,683.057,454.324,677.742,452.388,679.678,447.073,673.21,454.501" fill="#475569" style="stroke:#475569;stroke-width:1.5;stroke-linejoin:miter;stroke-miterlimit:10;"/><text x="781.7" y="404.058" fill="#000" font-size="13" textLength="65.444" font-weight="700" font-family="'DejaVu Sans'">QUERY ③</text><text x="851.277" y="404.058" fill="#000" font-size="13" textLength="174.853" font-family="'DejaVu Sans'">🚫 refuse (nothing relevant)</text></g><!--link llm to ui--><g class="link" data-entity-1="ent0009" data-entity-2="ent0010" id="lnk21" data-source-line="62" data-link-type="dependency"><path d="M638.16,307.001 C583.83,315.791 522.1,336.431 487.7,383.491 C470.55,406.951 484.971,427.693 510.491,446.713" style="stroke:#475569;stroke-width:1.5;" fill="none" id="llm-to-ui"/><polygon points="514.5,449.701,509.674,441.115,510.491,446.713,504.893,447.53,514.5,449.701" fill="#475569" style="stroke:#475569;stroke-width:1.5;stroke-linejoin:miter;stroke-miterlimit:10;"/><text x="522.65" y="396.558" fill="#000" font-size="13" textLength="65.444" font-weight="700" font-family="'DejaVu Sans'">QUERY ⑤</text><text x="592.227" y="396.558" fill="#000" font-size="13" textLength="113.617" font-family="'DejaVu Sans'">grounded answer</text><text x="488.7" y="411.69" fill="#000" font-size="13" textLength="65.444" font-weight="700" font-family="'DejaVu Sans'">QUERY ⑥</text><text x="558.277" y="411.69" fill="#000" font-size="13" textLength="181.518" font-family="'DejaVu Sans'">[doc, chunk, page] citations</text></g><?plantuml-src VLRBSXj55DtFLroSAagkIBOKMufi75EoBBbSbOUZn50KOj6QQKc3HjsJxXav2e5YHHNBKApO025PyG7i-HH_0P_0wUuPQKOHQ2MxxpdtTUwz-YYPyZcdE6AXyFGi535JR4uZviycIgOYwCf8AhhJjv-2HS37B8sIlXJ9OmQ6dNF-DViifMTCw9tjTi_2LvmQ1uN7p8CIN56ZNdZeA2LlCjU7zvlDrj7cu_DfwCy4rveQUyt2ev01fsyyehCFKcZtE_skUP4gu2hxR-lm_c7xpFks61Nt4oOcqLQUanF59gUdTAVNwzz3HKfqgyVMGQlLRsn3wuHDkCLt--VzvYP-zToednsr_uD1Ack2XjpldN_8a3ytZthrisqC_6LY3SwHGNiJdptskeVjewDjw3Iqu3hWdKsmUsiSdhKxBTGq2HDKCP1-58f93RMfnTAds-z_faZwB38lwPoBX0QT2wf8mUdYwff6ycML_4Yc0Jry-8WwLvUxdXVn2HS19JAcY8yJx-HZVyhzsIczVa0dezFBnnUzPyzFzaUdXiU7eY6fdBvAYv3HxPlVA8qZoOBT3FJqkZVumc7uWgiblKYvJa8frW2cPx3sNXlpspU_M-Dpbmz1BPfhgY3cNRAVajdJG36aDbsEL1YGvapvqsFCWz2SxfAsw2eD1ltQEDKyM7jvQ-5IXPDGe4Wp7YSK2Xg74RojlJYpfpTS742oy3NJfZorPfrkV_W9C1xJxO_lgRvtiER-muByQIfcT1CcKoGnuIJI-OWhlUPsPYoAQCGZUMCuFhMi__pwov_mPYAksku8Kpb2CwDY2kyi_koYLtjqi9dpsekpMdSQg-F6X35MSauwLOjmOUfiezLhylSMbiQQArEOHEQbfb8Nd9dZXFCleOQguwhQhByYFqoOQRUsgLrVmWKqvfJcUSp79D4rl405X8ILvwrNmmxKZAOYHfyFHQNFT0AXqjz_KIxZM4aV-saeV3cF9VBEh8y9qDqTofU5MJ85tanTGn6nfKoJ6hjXYZkjmG-8Zsd0uZ1uqXqWAsTasVBLWM2pYIiJTqtgN0t5T-rw7OK0OzMg124MLR31vJjOcSjrbZW0GM0uJT8nqwwIhj-LHltUOR0x5Al6LoB-CeHKDiErD6K7LjQrWPKr6b3VQvqDXVQnsbOYzva8me0b7F5RHM9M9lZpsEhsnEhUHEFKkk7I3GnyWe2D68BRSVEra15s1XBAn-_glA_T38ub4ZLMUt4mlcDAzk0neSwph6HkxuBSCc7zUMloJA6DlKOJNVn04I_iCsgrCIeBRaI818qbLpKTuhfXPH1IWd0t_3eMptCJjTCjhj2XU19pqRcaVJ9V1b0DwhfFh_POIFj3mSIId4NDH8Uv64L6S594IpDa74SwGMTXWXZzfUsXknNm74Npqd1ypaUO9y1jt06DbbIO5-G9TMBLcd61Lb54znsYJ0olFIDcw4BFCuD7jHe6FgJZzQetspdR0sQbsveFHRxKLw_Otwkjxe7146NJiPNjwWd-sCyFX_PoMuDp0YcZtAgtkpPNJ0cJJSy6ogrkew0QjiI22wEDCE5pxUK00xPpiG4jB70DdHWExJb30t4IsC2yovUXipD3uROd6bGM70vjLgGYKRcahaGegbfwcPK1k8ag0rnrt7dBfhO2zUvwcR71GJfbqDiyIOEOKIMxOILGheKLnW8AnuagGYPJqmN58xumm-KPJzl0xWovtpW8r5sCafPSzVxlWkHbisejiHVFq2Sh0AuUVhzYpM2UtC8eB9L_0G00?></g></svg>